<mxfile host="app.diagrams.net" modified="2023-07-26T06:21:01.353Z" agent="Mozilla/5.0 (Windows NT 10.0; Win64; x64; rv:109.0) Gecko/20100101 Firefox/115.0" etag="-bxZL7Sv1oAw_kZ1gosw" version="21.6.5" type="github">
  <diagram name="Page-1" id="b-GvlYgbe-usW-_9CSE4">
    <mxGraphModel dx="780" dy="781" grid="1" gridSize="10" guides="1" tooltips="1" connect="1" arrows="1" fold="1" page="1" pageScale="1" pageWidth="850" pageHeight="1100" math="0" shadow="0">
      <root>
        <mxCell id="0" />
        <mxCell id="1" parent="0" />
        <mxCell id="T11Usa7jfr0eZrBqCiGz-1" value="start" style="ellipse;whiteSpace=wrap;html=1;" vertex="1" parent="1">
          <mxGeometry x="425" y="10" width="120" height="80" as="geometry" />
        </mxCell>
      </root>
    </mxGraphModel>
  </diagram>
</mxfile>
